<?xml version="1.0" encoding="UTF-8"?>
<svg width="39px" height="25px" viewBox="0 0 39 25" version="1.1" xmlns="http://www.w3.org/2000/svg" xmlns:xlink="http://www.w3.org/1999/xlink">
    <defs></defs>
    <g id="Page-1" stroke="none" stroke-width="1" fill="none" fill-rule="evenodd">
        <g id="Group" transform="translate(-1.000000, 0.000000)" fill="#D6D6D6">
            <rect id="Rectangle" transform="translate(29.000000, 13.000000) rotate(40.000000) translate(-29.000000, -13.000000) " x="27" y="-2" width="4" height="30" rx="2"></rect>
            <path d="M12.2457395,-2.22789164 L12.2457395,-2.22789164 C13.3491228,-2.22789164 14.2435917,-1.33342275 14.2435917,-0.230039459 C14.2435917,-0.229323905 14.2435913,-0.228608351 14.2435905,-0.227892797 L14.2155332,25.8844015 C14.2143241,27.0097315 13.3229284,27.9323843 12.1983081,27.9723615 L12.1983081,27.9723615 C11.1264954,28.0104615 10.2267333,27.1724718 10.1886333,26.1006591 C10.1877687,26.0763373 10.1873615,26.0520013 10.1874117,26.0276642 L10.2416109,-0.227895904 C10.2438924,-1.33313026 11.1405028,-2.22789164 12.2457395,-2.22789164 Z" id="Rectangle" transform="translate(12.215500, 12.872860) rotate(-40.000000) translate(-12.215500, -12.872860) "></path>
        </g>
    </g>
</svg>