<?xml version="1.0" encoding="UTF-8"?>
<svg width="22px" height="22px" viewBox="0 0 22 22" version="1.1" xmlns="http://www.w3.org/2000/svg" xmlns:xlink="http://www.w3.org/1999/xlink">
    <!-- Generator: Sketch 49.3 (51167) - http://www.bohemiancoding.com/sketch -->
    <g id="icons/i-account--blue" stroke="none" stroke-width="1" fill="none" fill-rule="evenodd">
        <path d="M7.46411481,12.2676214 C8.53639295,13.2237102 9.95034337,13.8047376 11.5,13.8047376 C13.0455486,13.8047376 14.4561095,13.2267866 15.5273504,12.2752171 C17.3254046,13.5095373 18.5,15.4747588 18.5,17.4024454 C18.5,20.5512249 12.9425607,20.4699903 11.5,20.4699903 C10.0574393,20.4699903 4.5,20.5998035 4.5,17.4024454 C4.5,15.4481177 5.67087933,13.4926723 7.46411481,12.2676214 Z M11.5,11.9380709 C8.66493828,11.9380709 6.36666667,9.63979927 6.36666667,6.80473756 C6.36666667,3.96967584 8.66493828,1.67140422 11.5,1.67140422 C14.3350617,1.67140422 16.6333333,3.96967584 16.6333333,6.80473756 C16.6333333,9.63979927 14.3350617,11.9380709 11.5,11.9380709 Z" id="Combined-Shape" fill="#75B4E0"></path>
    </g>
</svg>