<?xml version="1.0" encoding="UTF-8"?>
<svg width="22px" height="22px" viewBox="0 0 22 22" version="1.1" xmlns="http://www.w3.org/2000/svg" xmlns:xlink="http://www.w3.org/1999/xlink">
    <!-- Generator: Sketch 49.3 (51167) - http://www.bohemiancoding.com/sketch -->
    <title>icons/i-cart--blue</title>
    <desc>Created with Sketch.</desc>
    <defs></defs>
    <g id="icons/i-cart--blue" stroke="none" stroke-width="1" fill="none" fill-rule="evenodd">
        <path d="M14.8858006,7.84184381 L15.5446794,6.36774573 C16.1884806,4.92738056 17.6187952,4 19.1964935,4 L21,4 L21,5.74027308 L19.0284316,5.74027308 C18.2269544,5.74027308 17.5028811,6.21874048 17.1886047,6.95603013 L15.8138096,10.1812869 L15.7833312,10.1658032 C15.7662868,10.2201964 15.7469001,10.2739254 15.7251982,10.3268355 L14.0487888,14.4140065 C13.7408591,15.1647546 13.0098366,15.6550405 12.1983914,15.6550405 L5.07101669,15.6550405 C4.30436132,15.6550405 3.60517195,15.2167894 3.27100437,14.5267949 L1.29156843,10.4396239 C0.810111798,9.44550455 1.22570705,8.24931386 2.2198264,7.76785723 C2.4915885,7.63624158 2.78962493,7.56786955 3.09158075,7.56786955 L13.8748008,7.56786955 C14.2436376,7.56786955 14.589155,7.66771178 14.8858006,7.84184381 Z M5.82037088,19.698626 C4.90811165,19.698626 4.16857943,18.9443032 4.16857943,18.0137987 C4.16857943,17.0832943 4.90811165,16.3289714 5.82037088,16.3289714 C6.73263012,16.3289714 7.47216234,17.0832943 7.47216234,18.0137987 C7.47216234,18.9443032 6.73263012,19.698626 5.82037088,19.698626 Z M11.7668201,19.698626 C10.8545609,19.698626 10.1150287,18.9443032 10.1150287,18.0137987 C10.1150287,17.0832943 10.8545609,16.3289714 11.7668201,16.3289714 C12.6790794,16.3289714 13.4186116,17.0832943 13.4186116,18.0137987 C13.4186116,18.9443032 12.6790794,19.698626 11.7668201,19.698626 Z" id="i-cart--blue" fill="#75B4E0"></path>
    </g>
</svg>