<?xml version="1.0" encoding="UTF-8"?>
<svg width="22px" height="22px" viewBox="0 0 22 22" version="1.1" xmlns="http://www.w3.org/2000/svg" xmlns:xlink="http://www.w3.org/1999/xlink">
    <!-- Generator: Sketch 49.3 (51167) - http://www.bohemiancoding.com/sketch -->
    <g id="icons/i-vergleich-negativ--blue" stroke="none" stroke-width="1" fill="none" fill-rule="evenodd">
        <path d="M14,3 L13,3 C13,2.44771525 12.5522847,2 12,2 L3,2 C2.44771525,2 2,2.44771525 2,3 L2,16 C2,16.5522847 2.44771525,17 3,17 L8,17 L8,18 L3,18 C1.8954305,18 1,17.1045695 1,16 L1,3 C1,1.8954305 1.8954305,1 3,1 L12,1 C13.1045695,1 14,1.8954305 14,3 Z" id="Combined-Shape" fill="#75B4E0"></path>
        <path d="M11,4 L19,4 C20.1045695,4 21,4.8954305 21,6 L21,19 C21,20.1045695 20.1045695,21 19,21 L11,21 C9.8954305,21 9,20.1045695 9,19 L9,6 C9,4.8954305 9.8954305,4 11,4 Z M11,5 C10.4477153,5 10,5.44771525 10,6 L10,19 C10,19.5522847 10.4477153,20 11,20 L19,20 C19.5522847,20 20,19.5522847 20,19 L20,6 C20,5.44771525 19.5522847,5 19,5 L11,5 Z" id="Combined-Shape" fill="#75B4E0"></path>
        <polygon id="Star-3" fill="#75B4E0" points="4.5 10.25 1.46891109 10.25 2.98445554 7.625 4.5 5 6.01554446 7.625 7.53108891 10.25"></polygon>
        <rect id="Rectangle-41" fill="#75B4E0" x="1" y="8" width="3" height="1"></rect>
        <polygon id="Star-3" fill="#75B4E0" points="14.5 11.25 11.4689111 11.25 12.9844555 8.625 14.5 6 16.0155445 8.625 17.5310889 11.25"></polygon>
        <rect id="Rectangle-41" fill="#75B4E0" x="13" y="9" width="8" height="1"></rect>
    </g>
</svg>