<?xml version="1.0" encoding="UTF-8"?>
<svg width="22px" height="22px" viewBox="0 0 22 22" version="1.1" xmlns="http://www.w3.org/2000/svg" xmlns:xlink="http://www.w3.org/1999/xlink">
    <!-- Generator: Sketch 49.3 (51167) - http://www.bohemiancoding.com/sketch -->
    <title>icons/i-vergleich-negativ--blue</title>
    <desc>Created with Sketch.</desc>
    <defs></defs>
    <g stroke="none" stroke-width="1" fill="none" fill-rule="evenodd">
        <path d="M20,9 L20,6 C20,5.44771525 19.5522847,5 19,5 L11,5 C10.4477153,5 10,5.44771525 10,6 L10,19 C10,19.5522847 10.4477153,20 11,20 L19,20 C19.5522847,20 20,19.5522847 20,19 L20,10 L16.25,10 L16.25,12.5310889 L13.625,11.0155445 L11,9.5 L13.625,7.98445554 L16.25,6.46891109 L16.25,9 L20,9 Z M2,9 L2,16 C2,16.5522847 2.44771525,17 3,17 L8,17 L8,18 L3,18 C1.8954305,18 1,17.1045695 1,16 L1,3 C1,1.8954305 1.8954305,1 3,1 L12,1 C13.1045695,1 14,1.8954305 14,3 L13,3 C13,2.44771525 12.5522847,2 12,2 L3,2 C2.44771525,2 2,2.44771525 2,3 L2,8 L2.75,8 L2.75,5.46891109 L5.375,6.98445554 L8,8.5 L5.375,10.0155445 L2.75,11.5310889 L2.75,9 L2,9 Z M11,4 L19,4 C20.1045695,4 21,4.8954305 21,6 L21,19 C21,20.1045695 20.1045695,21 19,21 L11,21 C9.8954305,21 9,20.1045695 9,19 L9,6 C9,4.8954305 9.8954305,4 11,4 Z" fill="#75B4E0"></path>
    </g>
</svg>
