<?xml version="1.0" encoding="UTF-8"?>
<svg width="22px" height="22px" viewBox="0 0 22 22" version="1.1" xmlns="http://www.w3.org/2000/svg" xmlns:xlink="http://www.w3.org/1999/xlink">
    <!-- Generator: Sketch 49.3 (51167) - http://www.bohemiancoding.com/sketch -->
    <g id="icons/i-vergleich--blue" stroke="none" stroke-width="1" fill="none" fill-rule="evenodd">
        <path d="M21,9 L16.25,9 L16.25,6.46891109 L13.625,7.98445554 L11,9.5 L13.625,11.0155445 L16.25,12.5310889 L16.25,10 L21,10 L21,19 C21,20.1045695 20.1045695,21 19,21 L12,21 C10.8954305,21 10,20.1045695 10,19 L10,6 C10,4.8954305 10.8954305,4 12,4 L19,4 C20.1045695,4 21,4.8954305 21,6 L21,9 Z M1,8 L1,3 C1,1.8954305 1.8954305,1 3,1 L12,1 C13.1045695,1 14,1.8954305 14,3 L12,3 C10.3431458,3 9,4.34314575 9,6 L9,18 L3,18 C1.8954305,18 1,17.1045695 1,16 L1,9 L2.75,9 L2.75,11.5310889 L5.375,10.0155445 L8,8.5 L5.375,6.98445554 L2.75,5.46891109 L2.75,8 L1,8 Z" id="Combined-Shape" fill="#75B4E0"></path>
    </g>
</svg>