<?xml version="1.0" encoding="UTF-8"?>
<svg width="22px" height="22px" viewBox="0 0 22 22" version="1.1" xmlns="http://www.w3.org/2000/svg" xmlns:xlink="http://www.w3.org/1999/xlink">
    <!-- Generator: Sketch 49.3 (51167) - http://www.bohemiancoding.com/sketch -->
    <g id="icons/i-delivery-status--red-x" stroke="none" stroke-width="1" fill="none" fill-rule="evenodd">
        <circle id="Oval" fill="#B50F0F" cx="11" cy="11" r="10"></circle>
        <path d="M12.1137085,10.5137085 L18.520266,10.5137085 C18.9584722,10.5137085 19.3137085,10.8688004 19.3137085,11.3137085 C19.3137085,11.7555363 18.949464,12.1137085 18.520266,12.1137085 L12.1137085,12.1137085 L12.1137085,18.520266 C12.1137085,18.9584722 11.7586166,19.3137085 11.3137085,19.3137085 C10.8718807,19.3137085 10.5137085,18.949464 10.5137085,18.520266 L10.5137085,12.1137085 L4.10715099,12.1137085 C3.6689448,12.1137085 3.3137085,11.7586166 3.3137085,11.3137085 C3.3137085,10.8718807 3.67795296,10.5137085 4.10715099,10.5137085 L10.5137085,10.5137085 L10.5137085,4.10715099 C10.5137085,3.6689448 10.8688004,3.3137085 11.3137085,3.3137085 C11.7555363,3.3137085 12.1137085,3.67795296 12.1137085,4.10715099 L12.1137085,10.5137085 Z" id="Combined-Shape" fill="#FFFFFF" transform="translate(11.313708, 11.313708) rotate(45.000000) translate(-11.313708, -11.313708) "></path>
    </g>
</svg>