<?xml version="1.0" encoding="UTF-8"?>
<svg width="22px" height="22px" viewBox="0 0 22 22" version="1.1" xmlns="http://www.w3.org/2000/svg" xmlns:xlink="http://www.w3.org/1999/xlink">
    <!-- Generator: Sketch 49.3 (51167) - http://www.bohemiancoding.com/sketch -->
    <g stroke="none" stroke-width="1" fill="none" fill-rule="evenodd">
        <path d="M18.2361065,13 C17.686786,12.3862506 16.8884998,12 16,12 C15.2316456,12 14.5307565,12.2888536 14,12.7638935 L14,5 L18,5 C19.6568542,5 21,6.34314575 21,8 L21,13 L18.2361065,13 Z M7.82929429,14 C7.41745788,12.8348076 6.30621883,12 5,12 C3.69378117,12 2.58254212,12.8348076 2.17070571,14 L1,14 L1,7 C1,5.8954305 1.8954305,5 3,5 L13,5 L13,14 L7.82929429,14 Z M17,6 L17,10 L20,10 L20,8 C20,6.8954305 19.1045695,6 18,6 L17,6 Z M1,15 L2,15 L2,16 L1,16 L1,15 Z M19,14 L21,14 L21,16 L19,16 L19,14 Z M8,15 L13,15 L13,16 L8,16 L8,15 Z M5,17 C3.8954305,17 3,16.1045695 3,15 C3,13.8954305 3.8954305,13 5,13 C6.1045695,13 7,13.8954305 7,15 C7,16.1045695 6.1045695,17 5,17 Z M16,17 C14.8954305,17 14,16.1045695 14,15 C14,13.8954305 14.8954305,13 16,13 C17.1045695,13 18,13.8954305 18,15 C18,16.1045695 17.1045695,17 16,17 Z" fill="#75B4E0"></path>
    </g>
</svg>
