<?xml version="1.0" encoding="UTF-8"?>
<svg width="22px" height="22px" viewBox="0 0 22 22" version="1.1" xmlns="http://www.w3.org/2000/svg" xmlns:xlink="http://www.w3.org/1999/xlink">
    <!-- Generator: Sketch 49.3 (51167) - http://www.bohemiancoding.com/sketch -->
    <g stroke="none" stroke-width="1" fill="none" fill-rule="evenodd">
        <g transform="translate(10.253048, 11.253048) rotate(-135.000000) translate(-10.253048, -11.253048) translate(7.253048, -0.246952)" fill="#75B4E0">
            <path d="M5,17 L5,8 L6,8 L6,21 C6,22.1045695 5.1045695,23 4,23 L2,23 C0.8954305,23 1.3527075e-16,22.1045695 0,21 L0,8 L1,8 L1,17 L5,17 Z M5,18 L1,18 L1,21.2727273 C1,21.825012 1.44771525,22.2727273 2,22.2727273 L4,22.2727273 C4.55228475,22.2727273 5,21.825012 5,21.2727273 L5,18 Z M5,7 L3,2.33333333 L1,7 L0,7 L3,1.47792889e-12 L6,7 L5,7 Z M2,8 L4,8 L4,9 L2,9 L2,8 Z"></path>
        </g>
    </g>
</svg>
