<?xml version="1.0" encoding="UTF-8"?>
<svg width="22px" height="22px" viewBox="0 0 22 22" version="1.1" xmlns="http://www.w3.org/2000/svg" xmlns:xlink="http://www.w3.org/1999/xlink">
    <!-- Generator: Sketch 49.3 (51167) - http://www.bohemiancoding.com/sketch -->
    <g stroke="none" stroke-width="1" fill="none" fill-rule="evenodd">
        <path d="M8,2 L8,3 L4,3 C3.44771525,3 3,3.44771525 3,4 L3,19 C3,19.5522847 3.44771525,20 4,20 L15,20 C15.5522847,20 16,19.5522847 16,19 L16,7 L17,7 L17,19 C17,20.1045695 16.1045695,21 15,21 L4,21 C2.8954305,21 2,20.1045695 2,19 L2,4 C2,2.8954305 2.8954305,2 4,2 L8,2 Z M5,9 L9,9 L9,10 L5,10 L5,9 Z M10,9 L14,9 L14,10 L10,10 L10,9 Z M5,13 L9,13 L9,14 L5,14 L5,13 Z M10,13 L14,13 L14,14 L10,14 L10,13 Z M5,11 L9,11 L9,12 L5,12 L5,11 Z M10,11 L14,11 L14,12 L10,12 L10,11 Z M5,15 L9,15 L9,16 L5,16 L5,15 Z M10,15 L14,15 L14,16 L10,16 L10,15 Z M5,17 L9,17 L9,18 L5,18 L5,17 Z M10,17 L14,17 L14,18 L10,18 L10,17 Z M9.077,6 L10.344,3.655 L9.154,1.436 L10.302,1.436 L10.701,2.297 C10.7523336,2.40433387 10.8036664,2.5174994 10.855,2.6365 C10.9063336,2.75550059 10.9646663,2.88733261 11.03,3.032 L11.058,3.032 C11.1093336,2.88733261 11.1594998,2.75550059 11.2085,2.6365 C11.2575002,2.5174994 11.3053331,2.40433387 11.352,2.297 L11.716,1.436 L12.815,1.436 L11.632,3.704 L12.892,6 L11.744,6 L11.289,5.069 C11.2329997,4.94766606 11.1781669,4.82750059 11.1245,4.7085 C11.0708331,4.5894994 11.0113337,4.4600007 10.946,4.32 L10.918,4.32 C10.8666664,4.4600007 10.8153336,4.5894994 10.764,4.7085 C10.7126664,4.82750059 10.6613336,4.94766606 10.61,5.069 L10.183,6 L9.077,6 Z M13.508,6 L13.508,1.436 L14.537,1.436 L14.537,5.132 L16.343,5.132 L16.343,6 L13.508,6 Z M18.331,6.084 C18.0323318,6.084 17.7348348,6.02916722 17.4385,5.9195 C17.1421652,5.80983279 16.8773345,5.64533443 16.644,5.426 L17.232,4.719 C17.3953342,4.8590007 17.5761657,4.97333289 17.7745,5.062 C17.9728343,5.15066711 18.1676657,5.195 18.359,5.195 C18.5736677,5.195 18.7334995,5.15533373 18.8385,5.076 C18.9435005,4.99666627 18.996,4.88933401 18.996,4.754 C18.996,4.68399965 18.9808335,4.62333359 18.9505,4.572 C18.9201665,4.52066641 18.8758336,4.47516687 18.8175,4.4355 C18.7591664,4.39583314 18.6891671,4.35850018 18.6075,4.3235 L18.338,4.208 L17.743,3.956 C17.6263328,3.9093331 17.5131672,3.84866704 17.4035,3.774 C17.2938328,3.69933296 17.1958338,3.61183384 17.1095,3.5115 C17.0231662,3.41116617 16.9543336,3.29450067 16.903,3.1615 C16.8516664,3.02849934 16.826,2.87800084 16.826,2.71 C16.826,2.5233324 16.8656663,2.3471675 16.945,2.1815 C17.0243337,2.01583251 17.1363326,1.87116729 17.281,1.7475 C17.4256674,1.62383272 17.5971657,1.52700035 17.7955,1.457 C17.9938343,1.38699965 18.2119988,1.352 18.45,1.352 C18.7160013,1.352 18.9784987,1.40333282 19.2375,1.506 C19.4965013,1.60866718 19.723999,1.75799902 19.92,1.954 L19.395,2.605 C19.2456659,2.48833275 19.0963341,2.39850032 18.947,2.3355 C18.7976659,2.27249969 18.6320009,2.241 18.45,2.241 C18.2726658,2.241 18.1315005,2.27716631 18.0265,2.3495 C17.9214995,2.4218337 17.869,2.52333268 17.869,2.654 C17.869,2.72400035 17.8864998,2.78349976 17.9215,2.8325 C17.9565002,2.88150025 18.0054997,2.92583314 18.0685,2.9655 C18.1315003,3.00516687 18.2049996,3.04249983 18.289,3.0775 C18.3730004,3.11250018 18.4639995,3.15099979 18.562,3.193 L19.15,3.431 C19.4300014,3.54300056 19.6504992,3.69699902 19.8115,3.893 C19.9725008,4.08900098 20.053,4.34799839 20.053,4.67 C20.053,4.86133429 20.0145004,5.04216582 19.9375,5.2125 C19.8604996,5.38283419 19.7485007,5.53216603 19.6015,5.6605 C19.4544993,5.78883398 19.2736677,5.89149962 19.059,5.9685 C18.8443323,6.04550039 18.601668,6.084 18.331,6.084 Z" fill="#75B4E0"></path>
    </g>
</svg>
