<?xml version="1.0" encoding="UTF-8"?>
<svg width="113px" height="113px" viewBox="0 0 113 113" version="1.1" xmlns="http://www.w3.org/2000/svg" xmlns:xlink="http://www.w3.org/1999/xlink">
    <!-- Generator: Sketch 49.3 (51167) - http://www.bohemiancoding.com/sketch -->
    <g id="sozialMedia/i-in" stroke="none" stroke-width="1" fill="none" fill-rule="evenodd">
        <rect id="Rectangle-2" stroke="#FFFFFF" x="0.5" y="0.5" width="112" height="112" rx="3"></rect>
        <path d="M89.4192894,88.3 L76.0739187,88.3 L76.0739187,67.415 C76.0739187,62.4325 75.9864163,56.025 69.136226,56.025 C62.188533,56.025 61.1310036,61.455 61.1310036,67.0575 L61.1310036,88.3 L47.7981333,88.3 L47.7981333,45.35 L60.5934887,45.35 L60.5934887,51.2225 L60.7759938,51.2225 C62.5560432,47.845 66.9136643,44.285 73.4088447,44.285 C86.92172,44.285 89.4192894,53.1775 89.4192894,64.745 L89.4192894,88.3 Z M32.7452151,39.4825 C28.457596,39.4825 25,36.015 25,31.74 C25,27.4675 28.457596,24 32.7452151,24 C37.0153338,24 40.4829301,27.4675 40.4829301,31.74 C40.4829301,36.015 37.0153338,39.4825 32.7452151,39.4825 Z M26.0625295,88.3 L39.4229006,88.3 L39.4229006,45.35 L26.0625295,45.35 L26.0625295,88.3 Z" id="Fill-1" fill="#FEFEFE"></path>
    </g>
</svg>
