<?xml version="1.0" encoding="UTF-8"?>
<svg width="30px" height="30px" viewBox="0 0 30 30" version="1.1" xmlns="http://www.w3.org/2000/svg" xmlns:xlink="http://www.w3.org/1999/xlink">
    <!-- Generator: Sketch 50 (54983) - http://www.bohemiancoding.com/sketch -->
    <title>sozialMedia/i-in-30x30</title>
    <desc>Created with Sketch.</desc>
    <defs></defs>
    <g id="sozialMedia/i-in-30x30" stroke="none" stroke-width="1" fill="none" fill-rule="evenodd">
        <rect id="Rectangle-2" stroke="#FFFFFF" x="0.5" y="0.5" width="29" height="29" rx="3"></rect>
        <path d="M23.1768135,22.886702 L19.7177929,22.886702 L19.7177929,17.4734657 C19.7177929,16.1820388 19.6951129,14.5212625 17.9195946,14.5212625 C16.1188044,14.5212625 15.8447006,15.9286781 15.8447006,17.3808043 L15.8447006,22.886702 L12.38892,22.886702 L12.38892,11.7543821 L15.7053808,11.7543821 L15.7053808,13.2764903 L15.7526847,13.2764903 C16.2140603,12.4010675 17.3435232,11.478342 19.0270255,11.478342 C22.5294621,11.478342 23.1768135,13.7832118 23.1768135,16.7814216 L23.1768135,22.886702 Z M8.48731577,10.2335698 C7.37599684,10.2335698 6.47981371,9.33481964 6.47981371,8.22677149 C6.47981371,7.11937133 7.37599684,6.22062117 8.48731577,6.22062117 C9.59409869,6.22062117 10.4928738,7.11937133 10.4928738,8.22677149 C10.4928738,9.33481964 9.59409869,10.2335698 8.48731577,10.2335698 Z M6.75521345,22.886702 L10.2181221,22.886702 L10.2181221,11.7543821 L6.75521345,11.7543821 L6.75521345,22.886702 Z" id="Fill-1" fill="#FEFEFE"></path>
    </g>
</svg>