<?xml version="1.0" encoding="UTF-8"?>
<svg width="22px" height="22px" viewBox="0 0 22 22" version="1.1" xmlns="http://www.w3.org/2000/svg" xmlns:xlink="http://www.w3.org/1999/xlink">
    <!-- Generator: Sketch 49.3 (51167) - http://www.bohemiancoding.com/sketch -->
    <g id="icons/i-orderHystorie--blue" stroke="none" stroke-width="1" fill="none" fill-rule="evenodd">
        <path d="M14.5041959,6.46076278 C14.5103469,6.45498391 14.5164289,6.44908942 14.522439,6.44307932 L17.6337088,3.33180948 C17.9461283,3.01939005 17.9461283,2.51285806 17.6337088,2.20043863 C17.3212894,1.8880192 16.8147574,1.8880192 16.502338,2.20043863 L13.8860429,4.81673372 L12.7193167,3.65000753 C12.4264235,3.35711431 11.9515497,3.35711431 11.6586565,3.65000753 C11.3657633,3.94290075 11.3657633,4.41777449 11.6586565,4.7106677 L13.4264235,6.47843466 C13.7193167,6.77132788 14.1941904,6.77132788 14.4870836,6.47843466 C14.4929034,6.47261493 14.4986075,6.46672335 14.5041959,6.46076278 Z M7,6 L7,15 C7,16.6568542 8.34314575,18 10,18 L15,18 L15,19 C15,20.1045695 14.1045695,21 13,21 L6,21 C4.8954305,21 4,20.1045695 4,19 L4,8 C4,6.8954305 4.8954305,6 6,6 L7,6 Z M10,1 L17,1 C18.1045695,1 19,1.8954305 19,3 L19,15 C19,16.1045695 18.1045695,17 17,17 L10,17 C8.8954305,17 8,16.1045695 8,15 L8,3 C8,1.8954305 8.8954305,1 10,1 Z" id="Combined-Shape" fill="#75B4E0"></path>
    </g>
</svg>