<?xml version="1.0" encoding="UTF-8"?>
<svg width="22px" height="22px" viewBox="0 0 22 22" version="1.1" xmlns="http://www.w3.org/2000/svg" xmlns:xlink="http://www.w3.org/1999/xlink">
    <!-- Generator: Sketch 49.3 (51167) - http://www.bohemiancoding.com/sketch -->
    <g id="icons/i-orderHystorie-negativ--blue" stroke="none" stroke-width="1" fill="none" fill-rule="evenodd">
        <path d="M14.5881991,6.1682274 C14.5838317,6.17288566 14.5793738,6.17749001 14.5748256,6.1820382 C14.3459258,6.41093808 13.9748057,6.41093808 13.7459059,6.1820382 L12.3643729,4.80050524 C12.135473,4.57160537 12.135473,4.20048534 12.3643729,3.97158547 C12.5932728,3.74268559 12.9643928,3.74268559 13.1932927,3.97158547 L14.1051044,4.88339722 L16.1497732,2.83872844 C16.3939331,2.59456857 16.7897944,2.59456857 17.0339543,2.83872844 C17.2781142,3.08288831 17.2781142,3.47874967 17.0339543,3.72290953 L14.6024563,6.15440754 C14.5977593,6.15910452 14.5930062,6.16371114 14.5881991,6.1682274 Z M7,6 L7,7 L6,7 C5.44771525,7 5,7.44771525 5,8 L5,19 C5,19.5522847 5.44771525,20 6,20 L13,20 C13.5522847,20 14,19.5522847 14,19 L14,18 L15,18 L15,19 C15,20.1045695 14.1045695,21 13,21 L6,21 C4.8954305,21 4,20.1045695 4,19 L4,8 C4,6.8954305 4.8954305,6 6,6 L7,6 Z M10,1 L17,1 C18.1045695,1 19,1.8954305 19,3 L19,15 C19,16.1045695 18.1045695,17 17,17 L10,17 C8.8954305,17 8,16.1045695 8,15 L8,3 C8,1.8954305 8.8954305,1 10,1 Z M10,2 C9.44771525,2 9,2.44771525 9,3 L9,15 C9,15.5522847 9.44771525,16 10,16 L17,16 C17.5522847,16 18,15.5522847 18,15 L18,3 C18,2.44771525 17.5522847,2 17,2 L10,2 Z" id="Combined-Shape" fill="#75B4E0"></path>
    </g>
</svg>