<?xml version="1.0" encoding="UTF-8"?>
<svg width="22px" height="22px" viewBox="0 0 22 22" version="1.1" xmlns="http://www.w3.org/2000/svg" xmlns:xlink="http://www.w3.org/1999/xlink">
    <!-- Generator: Sketch 49.3 (51167) - http://www.bohemiancoding.com/sketch -->
    <g id="icons/i-pdf--blue" stroke="none" stroke-width="1" fill="none" fill-rule="evenodd">
        <path d="M8,2 L8,3 L4,3 C3.44771525,3 3,3.44771525 3,4 L3,19 C3,19.5522847 3.44771525,20 4,20 L15,20 C15.5522847,20 16,19.5522847 16,19 L16,7 L17,7 L17,19 C17,20.1045695 16.1045695,21 15,21 L4,21 C2.8954305,21 2,20.1045695 2,19 L2,4 C2,2.8954305 2.8954305,2 4,2 L8,2 Z M5,9 L9,9 L9,10 L5,10 L5,9 Z M5,13 L14,13 L14,14 L5,14 L5,13 Z M5,11 L14,11 L14,12 L5,12 L5,11 Z M5,15 L14,15 L14,16 L5,16 L5,15 Z M10,17 L14,17 L14,18 L10,18 L10,17 Z M17.756,6 L17.756,1.436 L20.633,1.436 L20.633,2.304 L18.785,2.304 L18.785,3.361 L20.367,3.361 L20.367,4.229 L18.785,4.229 L18.785,6 L17.756,6 Z M9.539,6 L9.539,1.436 L11.107,1.436 C11.3590013,1.436 11.5946656,1.46049975 11.814,1.5095 C12.0333344,1.55850024 12.2246658,1.64016609 12.388,1.7545 C12.5513341,1.8688339 12.6808329,2.02049905 12.7765,2.2095 C12.8721671,2.39850094 12.92,2.63066529 12.92,2.906 C12.92,3.17200133 12.8721671,3.40299902 12.7765,3.599 C12.6808329,3.79500098 12.5513341,3.95599937 12.388,4.082 C12.2246658,4.20800063 12.0356677,4.30133303 11.821,4.362 C11.6063323,4.42266697 11.3776679,4.453 11.135,4.453 L10.568,4.453 L10.568,6 L9.539,6 Z M10.568,3.634 L11.072,3.634 C11.6320028,3.634 11.912,3.39133576 11.912,2.906 C11.912,2.66799881 11.8373341,2.50000049 11.688,2.402 C11.5386659,2.30399951 11.3240014,2.255 11.044,2.255 L10.568,2.255 L10.568,3.634 Z M13.511,6 L13.511,1.436 L14.799,1.436 C15.1490017,1.436 15.4639986,1.48033289 15.744,1.569 C16.0240014,1.65766711 16.2643323,1.79416574 16.465,1.9785 C16.6656677,2.16283425 16.8196661,2.39733191 16.927,2.682 C17.0343339,2.96666809 17.088,3.30499804 17.088,3.697 C17.088,4.08900196 17.0343339,4.42966522 16.927,4.719 C16.8196661,5.00833478 16.668001,5.24749905 16.472,5.4365 C16.275999,5.62550094 16.0415014,5.7666662 15.7685,5.86 C15.4954986,5.9533338 15.1910017,6 14.855,6 L13.511,6 Z M14.54,5.167 L14.736,5.167 C14.932001,5.167 15.1093325,5.14133359 15.268,5.09 C15.4266675,5.03866641 15.5619994,4.95583391 15.674,4.8415 C15.7860006,4.7271661 15.8734997,4.5766676 15.9365,4.39 C15.9995003,4.2033324 16.031,3.97233471 16.031,3.697 C16.031,3.42633198 15.9995003,3.19883426 15.9365,3.0145 C15.8734997,2.83016575 15.7860006,2.68316722 15.674,2.5735 C15.5619994,2.46383279 15.4266675,2.3856669 15.268,2.339 C15.1093325,2.2923331 14.932001,2.269 14.736,2.269 L14.54,2.269 L14.54,5.167 Z" id="Combined-Shape" fill="#75B4E0"></path>
    </g>
</svg>