<?xml version="1.0" encoding="UTF-8"?>
<svg width="22px" height="22px" viewBox="0 0 22 22" version="1.1" xmlns="http://www.w3.org/2000/svg" xmlns:xlink="http://www.w3.org/1999/xlink">
    <!-- Generator: Sketch 49.3 (51167) - http://www.bohemiancoding.com/sketch -->
    <g id="icons/i-print--blue" stroke="none" stroke-width="1" fill="none" fill-rule="evenodd">
        <g id="Group-6" transform="translate(1.000000, 5.000000)" fill="#75B4E0">
            <path d="M3,6 L3,7 L0,7 L0,1 C-6.76353751e-17,0.44771525 0.44771525,1.01453063e-16 1,0 L19,0 C19.5522847,-1.01453063e-16 20,0.44771525 20,1 L20,7 L17,7 L17,6 L19,6 L19,1 L1,1 L1,6 L3,6 Z M4,3 L16,3 L16,10 C16,11.1045695 15.1045695,12 14,12 L6,12 C4.8954305,12 4,11.1045695 4,10 L4,3 Z M5,4 L5,10 C5,10.5522847 5.44771525,11 6,11 L14,11 C14.5522847,11 15,10.5522847 15,10 L15,4 L5,4 Z M7,7 L13,7 L13,8 L7,8 L7,7 Z M7,5 L13,5 L13,6 L7,6 L7,5 Z M10,9 L13,9 L13,10 L10,10 L10,9 Z" id="Combined-Shape"></path>
        </g>
    </g>
</svg>