<?xml version="1.0" encoding="UTF-8"?>
<svg width="22px" height="22px" viewBox="0 0 22 22" version="1.1" xmlns="http://www.w3.org/2000/svg" xmlns:xlink="http://www.w3.org/1999/xlink">
    <!-- Generator: Sketch 49.3 (51167) - http://www.bohemiancoding.com/sketch -->
    <g stroke="none" stroke-width="1" fill="none" fill-rule="evenodd">
        <path d="M9.5,4.14039578 L9.5,1.5 L16.5,6.5 L9.5,11.5 L9.5,7.22890114 C7.47144652,7.86603296 6,9.76117911 6,12 C6,14.7614237 8.23857625,17 11,17 C13.7614237,17 16,14.7614237 16,12 C16,11.4431247 15.9089622,10.9075123 15.7409575,10.407234 L18.1758143,8.45934856 C18.7034741,9.52671369 19,10.7287282 19,12 C19,16.418278 15.418278,20 11,20 C6.581722,20 3,16.418278 3,12 C3,8.0944161 5.79870899,4.8425057 9.5,4.14039578 Z" fill="#75B4E0"></path>
    </g>
</svg>
