<?xml version="1.0" encoding="UTF-8"?>
<svg width="22px" height="22px" viewBox="0 0 22 22" version="1.1" xmlns="http://www.w3.org/2000/svg" xmlns:xlink="http://www.w3.org/1999/xlink">
    <!-- Generator: Sketch 49.3 (51167) - http://www.bohemiancoding.com/sketch -->
    <g stroke="none" stroke-width="1" fill="none" fill-rule="evenodd">
        <path d="M14,13 L14,16 L8,16 L8,13 L5,13 L11.0118268,6.46033047 L16.9274684,13 L14,13 Z M2,14 L3,14 L3,18 C3,18.5522847 3.44771525,19 4,19 L18,19 C18.5522847,19 19,18.5522847 19,18 L19,14 L20,14 L20,18 C20,19.1045695 19.1045695,20 18,20 L4,20 C2.8954305,20 2,19.1045695 2,18 L2,14 Z M5,17 L17,17 L17,18 L5,18 L5,17 Z" fill="#75B4E0"></path>
    </g>
</svg>
