<?xml version="1.0" encoding="UTF-8"?>
<svg width="22px" height="22px" viewBox="0 0 22 22" version="1.1" xmlns="http://www.w3.org/2000/svg" xmlns:xlink="http://www.w3.org/1999/xlink">
    <!-- Generator: Sketch 49.3 (51167) - http://www.bohemiancoding.com/sketch -->
    <g id="icons/i-wishlist--blue" stroke="none" stroke-width="1" fill="none" fill-rule="evenodd">
        <path d="M16.5,4.5 L16.5,2.5 C16.5,2.22385763 16.2761424,2 16,2 C15.7238576,2 15.5,2.22385763 15.5,2.5 L15.5,4.5 L13.5,4.5 C13.2238576,4.5 13,4.72385763 13,5 C13,5.27614237 13.2238576,5.5 13.5,5.5 L15.5,5.5 L15.5,7.5 C15.5,7.77614237 15.7238576,8 16,8 C16.2761424,8 16.5,7.77614237 16.5,7.5 L16.5,5.5 L18.5,5.5 C18.7761424,5.5 19,5.27614237 19,5 C19,4.72385763 18.7761424,4.5 18.5,4.5 L16.5,4.5 Z M11,5 C11,7.76142375 13.2385763,10 16,10 L16,19 C16,20.1045695 15.1045695,21 14,21 L6,21 C4.8954305,21 4,20.1045695 4,19 L4,7 C4,5.8954305 4.8954305,5 6,5 L11,5 Z M16,9 C13.790861,9 12,7.209139 12,5 C12,2.790861 13.790861,1 16,1 C18.209139,1 20,2.790861 20,5 C20,7.209139 18.209139,9 16,9 Z" id="Combined-Shape" fill="#75B4E0"></path>
    </g>
</svg>