<?xml version="1.0" encoding="UTF-8"?>
<svg width="22px" height="22px" viewBox="0 0 22 22" version="1.1" xmlns="http://www.w3.org/2000/svg" xmlns:xlink="http://www.w3.org/1999/xlink">
    <!-- Generator: Sketch 49.3 (51167) - http://www.bohemiancoding.com/sketch -->
    <g id="icons/i-wishlist-negativ--blue" stroke="none" stroke-width="1" fill="none" fill-rule="evenodd">
        <path d="M16.5,4.5 L17.5,4.5 C17.7761424,4.5 18,4.72385763 18,5 C18,5.27614237 17.7761424,5.5 17.5,5.5 L16.5,5.5 L16.5,6.5 C16.5,6.77614237 16.2761424,7 16,7 C15.7238576,7 15.5,6.77614237 15.5,6.5 L15.5,5.5 L14.5,5.5 C14.2238576,5.5 14,5.27614237 14,5 C14,4.72385763 14.2238576,4.5 14.5,4.5 L15.5,4.5 L15.5,3.5 C15.5,3.22385763 15.7238576,3 16,3 C16.2761424,3 16.5,3.22385763 16.5,3.5 L16.5,4.5 Z M11,5 C11,5.34246584 11.0344303,5.67689006 11.1000181,6 L6,6 C5.44771525,6 5,6.44771525 5,7 L5,19 C5,19.5522847 5.44771525,20 6,20 L14,20 C14.5522847,20 15,19.5522847 15,19 L15,9.89998188 C15.3231099,9.96556974 15.6575342,10 16,10 L16,19 C16,20.1045695 15.1045695,21 14,21 L6,21 C4.8954305,21 4,20.1045695 4,19 L4,7 C4,5.8954305 4.8954305,5 6,5 L11,5 Z M16,9 C13.790861,9 12,7.209139 12,5 C12,2.790861 13.790861,1 16,1 C18.209139,1 20,2.790861 20,5 C20,7.209139 18.209139,9 16,9 Z M16,8 C17.6568542,8 19,6.65685425 19,5 C19,3.34314575 17.6568542,2 16,2 C14.3431458,2 13,3.34314575 13,5 C13,6.65685425 14.3431458,8 16,8 Z" id="Combined-Shape" fill="#75B4E0"></path>
    </g>
</svg>