<?xml version="1.0" encoding="UTF-8"?>
<svg width="113px" height="113px" viewBox="0 0 113 113" version="1.1" xmlns="http://www.w3.org/2000/svg" xmlns:xlink="http://www.w3.org/1999/xlink">
    <!-- Generator: Sketch 49.3 (51167) - http://www.bohemiancoding.com/sketch -->
    <g id="sozialMedia/i-xing" stroke="none" stroke-width="1" fill="none" fill-rule="evenodd">
        <rect id="Rectangle-2" stroke="#FFFFFF" x="0.5" y="0.5" width="112" height="112" rx="3"></rect>
        <path d="M29.4205571,32.0791549 L41.3722714,32.0791549 C43.2049857,32.0791549 44.1028429,33.2650457 44.6987,34.3278034 C44.6987,34.3278034 52.8654143,48.6240014 52.9139857,48.7031276 C52.4308429,49.5584655 40.0132714,71.5945611 40.0132714,71.5945611 C39.4027,72.7004655 38.5405571,73.9101515 36.7539857,73.9101515 L24.8044143,73.9101515 C24.0845571,73.9101515 23.5469857,73.5861925 23.2422714,73.0930867 C22.9271286,72.580056 22.9114143,71.9152232 23.2422714,71.2536874 L35.9391286,48.7709297 C35.9528429,48.7465611 35.9528429,48.7295031 35.9391286,48.7026976 L27.8592714,34.6679604 C27.5235571,34.0005474 27.4757,33.3408751 27.7905571,32.8289911 C28.0959857,32.3328751 28.7012714,32.0791549 29.4205571,32.0791549 Z M79.68893,15.1457783 L79.68893,15.1452 L79.6874642,15.1452 L79.6874642,15.1443325 L92.0737508,15.1443325 C92.8126596,15.1443325 93.3917964,15.4191759 93.7043046,15.9173928 C94.0269267,16.4338265 94.0198909,17.1155133 93.6786531,17.7833205 L66.531487,65.1283807 C66.51507,65.152959 66.51507,65.1823084 66.531487,65.2077542 L83.817057,96.3581639 C84.1602003,97.0297301 84.1694349,97.7111277 83.8425619,98.2274169 C83.5312264,98.7256337 82.9535554,99.0000434 82.2150863,99.0000434 L69.9679039,99.0000434 C68.0899235,99.0000434 67.1509332,97.7692482 66.5424805,96.6964771 C66.5424805,96.6964771 49.1654446,65.2530072 49.1207378,65.1701639 C49.9908355,63.6538265 76.4061287,17.4493446 76.4061287,17.4493446 C77.0636857,16.2836096 77.8574153,15.1457783 79.68893,15.1457783 Z" id="Combined-Shape" fill="#FFFFFF"></path>
    </g>
</svg>
