<?xml version="1.0" encoding="UTF-8"?>
<svg width="30px" height="30px" viewBox="0 0 30 30" version="1.1" xmlns="http://www.w3.org/2000/svg" xmlns:xlink="http://www.w3.org/1999/xlink">
    <!-- Generator: Sketch 50 (54983) - http://www.bohemiancoding.com/sketch -->
    <defs></defs>
    <g stroke="none" stroke-width="1" fill="none" fill-rule="evenodd">
        <rect stroke="#FFFFFF" x="0.5" y="0.5" width="29" height="29" rx="3"></rect>
        <path d="M7.70332802,8.39944165 L10.8327037,8.39944165 C11.3125722,8.39944165 11.5476625,8.70994922 11.7036787,8.98821625 C11.7036787,8.98821625 13.8420093,12.7314595 13.854727,12.7521775 C13.7282234,12.9761348 10.4768701,18.7459532 10.4768701,18.7459532 C10.3170012,19.0355176 10.0912621,19.3522556 9.6234754,19.3522556 L6.49466081,19.3522556 C6.3061771,19.3522556 6.16542215,19.2674318 6.08563732,19.1383195 C6.00312193,19.0039902 5.99900738,18.8299138 6.08563732,18.6567006 L9.41011738,12.7699305 C9.41370825,12.7635499 9.41370825,12.7590835 9.41011738,12.7520649 L7.29452896,9.07728121 C7.20662725,8.90252922 7.19409658,8.72980399 7.27653716,8.59577491 C7.35650902,8.46587443 7.51499393,8.39944165 7.70332802,8.39944165 Z M20.8653413,3.96569303 L20.8653413,3.96554161 L20.8649575,3.96554161 L20.8649575,3.96531447 L24.1081194,3.96531447 C24.3015915,3.96531447 24.4532297,4.03727805 24.5350552,4.16772861 C24.619529,4.30294897 24.6176867,4.48143834 24.5283388,4.65629356 L17.4202638,17.0528817 C17.4159653,17.0593171 17.4159653,17.0670018 17.4202638,17.0736644 L21.946229,25.2299282 C22.0360759,25.4057676 22.0384938,25.5841813 21.952907,25.7193638 C21.8713885,25.8498143 21.7201341,25.9216644 21.5267772,25.9216644 L18.3200376,25.9216644 C17.8283169,25.9216644 17.5824565,25.5993993 17.4231423,25.3185104 C17.4231423,25.3185104 12.8732282,17.0855132 12.8615224,17.063822 C13.0893444,16.666792 20.0057894,4.56884702 20.0057894,4.56884702 C20.1779608,4.26361696 20.3857869,3.96569303 20.8653413,3.96569303 Z" fill="#FFFFFF"></path>
    </g>
</svg>
