<?xml version="1.0" encoding="UTF-8"?>
<svg width="22px" height="22px" viewBox="0 0 22 22" version="1.1" xmlns="http://www.w3.org/2000/svg" xmlns:xlink="http://www.w3.org/1999/xlink">
    <!-- Generator: Sketch 49.3 (51167) - http://www.bohemiancoding.com/sketch -->
    <g stroke="none" stroke-width="1" fill="none" fill-rule="evenodd">
        <path d="M0.66726189,11.1672619 L6.66726189,11.1672619 L6.66726189,12.1672619 L0.66726189,12.1672619 L0.66726189,11.1672619 Z M14.1672619,18.1672619 C10.577411,18.1672619 7.66726189,15.2571128 7.66726189,11.6672619 C7.66726189,8.07741102 10.577411,5.16726189 14.1672619,5.16726189 C17.7571128,5.16726189 20.6672619,8.07741102 20.6672619,11.6672619 C20.6672619,15.2571128 17.7571128,18.1672619 14.1672619,18.1672619 Z M14.1672619,17.1672619 C17.204828,17.1672619 19.6672619,14.704828 19.6672619,11.6672619 C19.6672619,8.62969577 17.204828,6.16726189 14.1672619,6.16726189 C11.1296958,6.16726189 8.66726189,8.62969577 8.66726189,11.6672619 C8.66726189,14.704828 11.1296958,17.1672619 14.1672619,17.1672619 Z" fill="currentColor" transform="translate(10.667262, 11.667262) rotate(-45.000000) translate(-10.667262, -11.667262) "></path>
    </g>
</svg>
