<?xml version="1.0" encoding="UTF-8"?>
<svg width="10px" height="13px" viewBox="0 0 10 13" version="1.1" xmlns="http://www.w3.org/2000/svg" xmlns:xlink="http://www.w3.org/1999/xlink">
    <!-- Generator: Sketch 50.2 (55047) - http://www.bohemiancoding.com/sketch -->
    <g stroke="none" stroke-width="1" fill="none" fill-rule="evenodd">
        <g transform="translate(0.000000, 1.000000)" fill="currentColor">
            <rect x="1" y="7" width="1" height="4" rx="0.5"></rect>
            <rect transform="translate(3.000000, 10.500000) rotate(-270.000000) translate(-3.000000, -10.500000) " x="2.5" y="8.5" width="1" height="4" rx="0.5"></rect>
            <path d="M4.77135517,5 L7.5,5 C7.77614237,5 8,5.22385763 8,5.5 C8,5.681361 7.90344082,5.84016939 7.75892748,5.92782015 L2.41268357,10.3153889 C2.21389492,10.4785313 1.92377378,10.4642789 1.74193269,10.2824378 L1.70882212,10.2493272 C1.53184644,10.0723515 1.53184644,9.78541725 1.70882212,9.60844156 C1.71931046,9.59795323 1.73030741,9.58798615 1.74177326,9.57857633 L6.10226148,6 L3.5,6 C3.22385763,6 3,5.77614237 3,5.5 C3,5.334602 3.08030938,5.18796126 3.20406094,5.09694499 L8.30369611,0.330111105 C8.5006367,0.146022822 8.80806038,0.151206131 8.99868317,0.341828916 L9.01040764,0.353553391 C9.19919454,0.542340288 9.19919454,0.848424325 9.01040764,1.03721122 C9.00656565,1.04105321 9.00265916,1.04483016 8.99868983,1.04854045 L4.77135517,5 Z"></path>
        </g>
    </g>
</svg>
