<?xml version="1.0" encoding="UTF-8"?>
<svg width="22px" height="22px" viewBox="0 0 22 22" version="1.1" xmlns="http://www.w3.org/2000/svg" xmlns:xlink="http://www.w3.org/1999/xlink">
    <!-- Generator: Sketch 49.3 (51167) - http://www.bohemiancoding.com/sketch -->
    <g stroke="none" stroke-width="1" fill="none" fill-rule="evenodd">
        <path d="M12,10 L20.0081969,10 C20.5559546,10 21,10.4438648 21,11 C21,11.5522847 20.5446944,12 20.0081969,12 L12,12 L12,20.0081969 C12,20.5559546 11.5561352,21 11,21 C10.4477153,21 10,20.5446944 10,20.0081969 L10,12 L1.99180311,12 C1.44404538,12 1,11.5561352 1,11 C1,10.4477153 1.45530558,10 1.99180311,10 L10,10 L10,1.99180311 C10,1.44404538 10.4438648,1 11,1 C11.5522847,1 12,1.45530558 12,1.99180311 L12,10 Z" fill="currentColor"></path>
    </g>
</svg>
