<svg xmlns="http://www.w3.org/2000/svg" width="160" height="35" viewBox="0 0 160 35">
  <path fill-rule="evenodd" d="M100.867627 10.0475147c-2.03328 0-3.975254.63264-5.616214 1.82944l-.348053.25376V10.705328h-6.610773v23.0578133h6.610773V21.106608c0-2.4529067 1.99552-4.4482133 4.448213-4.4482133 2.4528 0 4.448214 1.9953066 4.448214 4.4482133v12.6565333h6.610773l.000107-14.1725866c0-5.26208-4.281067-9.54304-9.54304-9.54304zM51.49984 33.7631413h6.610667V.2546613L51.49984 2.2379147v31.5252266zm102.735573-8.4033066c-.82912 1.5757866-2.58784 2.5445333-4.65184 2.5445333-3.203733 0-5.529066-2.38464-5.529066-5.67008 0-3.2853333 2.325333-5.67008 5.529066-5.67008 2.05184 0 3.770667.9469867 4.647254 2.5458133l5.768746-3.34688c-2.064213-3.5313066-5.998186-5.7156266-10.322026-5.7156266-6.9744 0-12.233814 5.2391466-12.233814 12.1867733 0 6.9476267 5.259414 12.1867733 12.233814 12.1867733 4.33408 0 8.268266-2.2018133 10.322453-5.76096l-5.764587-3.3002666zm-22.1792-25.18048c-2.17376 0-4.01024 1.8363733-4.01024 4.01024 0 2.1736533 1.83648 4.01024 4.01024 4.01024 2.17376 0 4.01024-1.8365867 4.01024-4.01024 0-2.1738667-1.83648-4.01024-4.01024-4.01024zm-3.305386 33.5837866h6.610773V10.705328h-6.610773v23.0578133zm-6.922134-30.5325866l-6.610666 1.98336v5.4914133h-3.75936v6.3288533h3.75936v8.5365334c0 3.20768.663893 5.3013333 2.08928 6.5885866 1.72704 1.5597867 4.704426 2.0772267 9.3616 1.6245334v-5.96032c-2.120854.1173333-3.50432.03264-4.257387-.67616-.392213-.3691734-.582827-.8848-.582827-1.57664v-8.5365334h4.840214V10.705328h-4.840214V3.2305547zM72.614507 28.1861813c-3.475734 0-5.810987-2.3918933-5.810987-5.9518933s2.335253-5.9518933 5.810987-5.9518933c3.475733 0 5.810986 2.3918933 5.810986 5.9518933s-2.335253 5.9518933-5.810986 5.9518933zm5.810986-14.9050666l-.38432-.44256c-1.60832-1.8519467-3.908373-2.79104-6.836266-2.79104-2.935574 0-5.692374 1.2452266-7.762454 3.5061333-2.095573 2.2888533-3.2496 5.3716267-3.2496 8.68064s1.154027 6.3917867 3.2496 8.68064c2.07008 2.2609067 4.82688 3.5061333 7.762454 3.5061333 2.927893 0 5.227946-.9390933 6.836266-2.79104l.38432-.44256v2.57568h6.610774V10.705328h-6.610774v2.5757867zM35.82176 28.1861813c-3.47584 0-5.811093-2.3918933-5.811093-5.9518933s2.335253-5.9518933 5.811093-5.9518933c3.475733 0 5.810987 2.3918933 5.810987 5.9518933s-2.335254 5.9518933-5.810987 5.9518933zm5.810987-14.9050666l-.384427-.44256c-1.60832-1.8519467-3.908267-2.79104-6.836267-2.79104-2.935573 0-5.692373 1.2452266-7.762453 3.5061333-2.095573 2.2888533-3.2496 5.3716267-3.2496 8.68064s1.154027 6.3917867 3.2496 8.68064c2.07008 2.2609067 4.82688 3.5061333 7.762453 3.5061333 2.928 0 5.227947-.9390933 6.836267-2.79104l.384427-.44256v2.57568h6.610773V10.705328h-6.610773v2.5757867zM17.41888 10.705328l-5.045653 15.3799467L7.32736 10.705328H0l8.531413 23.0578133h7.683414L24.74624 10.705328h-7.32736z"/>
</svg>