<?xml version="1.0" encoding="UTF-8"?><svg xmlns="http://www.w3.org/2000/svg" xmlns:xlink="http://www.w3.org/1999/xlink"><style>:root>svg{display:none}:root>svg:target{display:block}</style><svg viewBox="0 0 22 22" id="arrow--down" xmlns="http://www.w3.org/2000/svg"><path d="M10.9 14.97l7.778-7.778a1 1 0 011.414 1.415l-8.485 8.485a1 1 0 01-1.415 0L1.707 8.607a1 1 0 111.414-1.415l7.778 7.779z" fill="currentColor" fill-rule="evenodd"/></svg><svg viewBox="0 0 22 22" id="arrow--left" xmlns="http://www.w3.org/2000/svg"><path d="M4.828 10.9l7.779 7.778a1 1 0 01-1.415 1.414l-8.485-8.485a1 1 0 010-1.415l8.485-8.485a1 1 0 111.415 1.414L4.828 10.9z" fill="currentColor" fill-rule="evenodd"/></svg><svg viewBox="0 0 22 22" id="check" xmlns="http://www.w3.org/2000/svg"><path d="M8.172 14.243l7.778-7.779a1 1 0 011.414 1.415l-8.485 8.485a1 1 0 01-1.415 0l-2.828-2.828A1 1 0 116.05 12.12l2.122 2.122z" fill="currentColor" fill-rule="evenodd"/></svg><svg viewBox="0 0 22 22" id="close" xmlns="http://www.w3.org/2000/svg"><path d="M12.414 11l5.663 5.663a.993.993 0 01-.006 1.408c-.39.39-1.029.385-1.408.006L11 12.414l-5.663 5.663a.993.993 0 01-1.408-.006 1.003 1.003 0 01-.006-1.408L9.586 11 3.923 5.337A.993.993 0 013.93 3.93c.39-.39 1.029-.385 1.408-.006L11 9.586l5.663-5.663a.993.993 0 011.408.006c.39.39.385 1.029.006 1.408L12.414 11z" fill="currentColor" fill-rule="evenodd"/></svg><svg viewBox="0 0 22 22" id="error" xmlns="http://www.w3.org/2000/svg"><path d="M9 5c0-1.105.888-2 2-2 1.105 0 2 .887 2 2v6c0 1.105-.888 2-2 2-1.105 0-2-.887-2-2V5zm2 14a2 2 0 110-4 2 2 0 010 4z" fill="currentColor" fill-rule="evenodd"/></svg><svg viewBox="0 0 22 22" id="info" xmlns="http://www.w3.org/2000/svg"><path d="M11.5 8A1.5 1.5 0 0113 9.5v8a1.5 1.5 0 01-3 0v-8A1.5 1.5 0 0111.5 8zm0-5a1.5 1.5 0 110 3 1.5 1.5 0 010-3z" fill="currentColor" fill-rule="evenodd"/></svg><svg viewBox="0 0 22 22" id="plus" xmlns="http://www.w3.org/2000/svg"><path d="M12 10h8.008c.548 0 .992.444.992 1 0 .552-.455 1-.992 1H12v8.008A.993.993 0 0111 21c-.552 0-1-.455-1-.992V12H1.992A.993.993 0 011 11c0-.552.455-1 .992-1H10V1.992A.993.993 0 0111 1c.552 0 1 .455 1 .992V10z" fill="currentColor" fill-rule="evenodd"/></svg><svg viewBox="0 0 22 22" id="search" xmlns="http://www.w3.org/2000/svg"><path d="M3.243 18.385l4.242-4.243.707.707-4.242 4.243-.707-.707zm14.495-4.596a6.5 6.5 0 11-9.192-9.193 6.5 6.5 0 019.192 9.193zm-.707-.708a5.5 5.5 0 10-7.778-7.778 5.5 5.5 0 007.778 7.778z" fill="currentColor" fill-rule="evenodd"/></svg><svg viewBox="0 0 8 8" id="styleguide-heart" xmlns="http://www.w3.org/2000/svg"><path d="M2 1c-.55 0-1.04.23-1.41.59C.23 1.95 0 2.44 0 3c0 .55.23 1.04.59 1.41L4 7.82l3.41-3.41C7.77 4.05 8 3.56 8 3c0-.55-.23-1.04-.59-1.41C7.05 1.23 6.56 1 6 1c-.55 0-1.04.23-1.41.59C4.23 1.95 4 2.44 4 3c0-.55-.23-1.04-.59-1.41C3.05 1.23 2.56 1 2 1z" fill="currentColor"/></svg><svg viewBox="0 0 10 13" id="warning" xmlns="http://www.w3.org/2000/svg"><g transform="translate(0 1)" fill="currentColor" fill-rule="evenodd"><rect x="1" y="7" width="1" height="4" rx=".5"/><rect transform="rotate(90 3 10.5)" x="2.5" y="8.5" width="1" height="4" rx=".5"/><path d="M4.771 5H7.5a.5.5 0 01.259.928l-5.346 4.387a.5.5 0 01-.671-.033l-.033-.033a.453.453 0 01.033-.67L6.102 6H3.5a.5.5 0 01-.296-.903L8.304.33a.5.5 0 01.695.012l.011.012A.483.483 0 019 1.049L4.77 5z"/></g></svg></svg>