<?xml version="1.0" encoding="UTF-8"?><svg viewBox="0 0 160 35" xmlns="http://www.w3.org/2000/svg" xmlns:xlink="http://www.w3.org/1999/xlink"><style>:root>svg{display:none}:root>svg:target{display:block}</style><svg viewBox="0 0 22 22" id="arrow--down--disabled" xmlns="http://www.w3.org/2000/svg"><path d="M10.9 14.97l7.778-7.778a1 1 0 011.414 1.415l-8.485 8.485a1 1 0 01-1.415 0L1.707 8.607a1 1 0 111.414-1.415l7.778 7.779z" fill="currentColor" fill-rule="evenodd"/></svg><svg viewBox="0 0 22 22" id="arrow--down--info" xmlns="http://www.w3.org/2000/svg"><path d="M10.9 14.97l7.778-7.778a1 1 0 011.414 1.415l-8.485 8.485a1 1 0 01-1.415 0L1.707 8.607a1 1 0 111.414-1.415l7.778 7.779z" fill="currentColor" fill-rule="evenodd"/></svg><svg viewBox="0 0 22 22" id="arrow--left--info" xmlns="http://www.w3.org/2000/svg"><path d="M4.828 10.9l7.779 7.778a1 1 0 01-1.415 1.414l-8.485-8.485a1 1 0 010-1.415l8.485-8.485a1 1 0 111.415 1.414L4.828 10.9z" fill="currentColor" fill-rule="evenodd"/></svg><svg viewBox="0 0 22 22" id="check" xmlns="http://www.w3.org/2000/svg"><path d="M8.172 14.243l7.778-7.779a1 1 0 011.414 1.415l-8.485 8.485a1 1 0 01-1.415 0l-2.828-2.828A1 1 0 116.05 12.12l2.122 2.122z" fill="currentColor" fill-rule="evenodd"/></svg><svg viewBox="0 0 22 22" id="check--disabled" xmlns="http://www.w3.org/2000/svg"><path d="M8.172 14.243l7.778-7.779a1 1 0 011.414 1.415l-8.485 8.485a1 1 0 01-1.415 0l-2.828-2.828A1 1 0 116.05 12.12l2.122 2.122z" fill="currentColor" fill-rule="evenodd"/></svg><svg viewBox="0 0 22 22" id="check--negative" xmlns="http://www.w3.org/2000/svg"><path d="M8.172 14.243l7.778-7.779a1 1 0 011.414 1.415l-8.485 8.485a1 1 0 01-1.415 0l-2.828-2.828A1 1 0 116.05 12.12l2.122 2.122z" fill="currentColor" fill-rule="evenodd"/></svg><svg viewBox="0 0 22 22" id="close" xmlns="http://www.w3.org/2000/svg"><path d="M12.414 11l5.663 5.663a.993.993 0 01-.006 1.408c-.39.39-1.029.385-1.408.006L11 12.414l-5.663 5.663a.993.993 0 01-1.408-.006 1.003 1.003 0 01-.006-1.408L9.586 11 3.923 5.337A.993.993 0 013.93 3.93c.39-.39 1.029-.385 1.408-.006L11 9.586l5.663-5.663a.993.993 0 011.408.006c.39.39.385 1.029.006 1.408L12.414 11z" fill="currentColor" fill-rule="evenodd"/></svg><svg viewBox="0 0 22 22" id="error" xmlns="http://www.w3.org/2000/svg"><path d="M9 5c0-1.105.888-2 2-2 1.105 0 2 .887 2 2v6c0 1.105-.888 2-2 2-1.105 0-2-.887-2-2V5zm2 14a2 2 0 110-4 2 2 0 010 4z" fill="currentColor" fill-rule="evenodd"/></svg><svg viewBox="0 0 22 22" id="error--negative" xmlns="http://www.w3.org/2000/svg"><path d="M9 5c0-1.105.888-2 2-2 1.105 0 2 .887 2 2v6c0 1.105-.888 2-2 2-1.105 0-2-.887-2-2V5zm2 14a2 2 0 110-4 2 2 0 010 4z" fill="currentColor" fill-rule="evenodd"/></svg><svg viewBox="0 0 22 22" id="info" xmlns="http://www.w3.org/2000/svg"><path d="M11.5 8A1.5 1.5 0 0113 9.5v8a1.5 1.5 0 01-3 0v-8A1.5 1.5 0 0111.5 8zm0-5a1.5 1.5 0 110 3 1.5 1.5 0 010-3z" fill="currentColor" fill-rule="evenodd"/></svg><svg viewBox="0 0 22 22" id="info--negative" xmlns="http://www.w3.org/2000/svg"><path d="M11.5 8A1.5 1.5 0 0113 9.5v8a1.5 1.5 0 01-3 0v-8A1.5 1.5 0 0111.5 8zm0-5a1.5 1.5 0 110 3 1.5 1.5 0 010-3z" fill="currentColor" fill-rule="evenodd"/></svg><svg viewBox="0 0 22 22" id="plus" xmlns="http://www.w3.org/2000/svg"><path d="M12 10h8.008c.548 0 .992.444.992 1 0 .552-.455 1-.992 1H12v8.008A.993.993 0 0111 21c-.552 0-1-.455-1-.992V12H1.992A.993.993 0 011 11c0-.552.455-1 .992-1H10V1.992A.993.993 0 0111 1c.552 0 1 .455 1 .992V10z" fill="currentColor" fill-rule="evenodd"/></svg><svg viewBox="0 0 22 22" id="search" xmlns="http://www.w3.org/2000/svg"><path d="M3.243 18.385l4.242-4.243.707.707-4.242 4.243-.707-.707zm14.495-4.596a6.5 6.5 0 11-9.192-9.193 6.5 6.5 0 019.192 9.193zm-.707-.708a5.5 5.5 0 10-7.778-7.778 5.5 5.5 0 007.778 7.778z" fill="currentColor" fill-rule="evenodd"/></svg><svg viewBox="0 0 8 8" id="styleguide-heart" xmlns="http://www.w3.org/2000/svg"><path d="M2 1c-.55 0-1.04.23-1.41.59C.23 1.95 0 2.44 0 3c0 .55.23 1.04.59 1.41L4 7.82l3.41-3.41C7.77 4.05 8 3.56 8 3c0-.55-.23-1.04-.59-1.41C7.05 1.23 6.56 1 6 1c-.55 0-1.04.23-1.41.59C4.23 1.95 4 2.44 4 3c0-.55-.23-1.04-.59-1.41C3.05 1.23 2.56 1 2 1z" fill="currentColor"/></svg><svg viewBox="0 0 160 35" id="valantic" xmlns="http://www.w3.org/2000/svg"><path fill-rule="evenodd" d="M100.868 10.048a9.47 9.47 0 00-5.617 1.829l-.348.254v-1.426h-6.61v23.058h6.61V21.107a4.453 4.453 0 014.449-4.449 4.453 4.453 0 014.448 4.449v12.656h6.61V19.591c0-5.263-4.28-9.543-9.542-9.543zM51.5 33.763h6.61V.255L51.5 2.238v31.525zm102.735-8.403c-.829 1.576-2.587 2.544-4.651 2.544-3.204 0-5.53-2.384-5.53-5.67 0-3.285 2.326-5.67 5.53-5.67 2.051 0 3.77.947 4.647 2.546L160 15.763c-2.065-3.531-5.999-5.715-10.322-5.715-6.975 0-12.234 5.239-12.234 12.186 0 6.948 5.26 12.187 12.234 12.187 4.334 0 8.268-2.202 10.322-5.76l-5.765-3.301zM132.056.18c-2.174 0-4.01 1.836-4.01 4.01 0 2.173 1.836 4.01 4.01 4.01 2.174 0 4.01-1.837 4.01-4.01 0-2.174-1.836-4.01-4.01-4.01zm-3.305 33.583h6.61V10.705h-6.61v23.058zm-6.922-30.532l-6.611 1.983v5.491h-3.76v6.33h3.76v8.536c0 3.207.664 5.301 2.09 6.588 1.726 1.56 4.704 2.078 9.36 1.625v-5.96c-2.12.117-3.503.032-4.256-.677-.393-.369-.583-.884-.583-1.576v-8.537h4.84v-6.329h-4.84V3.231zM72.615 28.186c-3.476 0-5.811-2.392-5.811-5.952s2.335-5.952 5.81-5.952c3.476 0 5.811 2.392 5.811 5.952s-2.335 5.952-5.81 5.952zm5.81-14.905l-.384-.442c-1.608-1.852-3.908-2.791-6.836-2.791-2.936 0-5.692 1.245-7.763 3.506-2.095 2.289-3.25 5.371-3.25 8.68s1.155 6.392 3.25 8.68c2.07 2.262 4.827 3.507 7.763 3.507 2.928 0 5.228-.939 6.836-2.791l.384-.443v2.576h6.611V10.705h-6.61v2.576zM35.822 28.186c-3.476 0-5.811-2.392-5.811-5.952s2.335-5.952 5.81-5.952c3.476 0 5.812 2.392 5.812 5.952s-2.336 5.952-5.811 5.952zm5.81-14.905l-.384-.442c-1.608-1.852-3.908-2.791-6.836-2.791-2.936 0-5.692 1.245-7.762 3.506-2.096 2.289-3.25 5.371-3.25 8.68s1.154 6.392 3.25 8.68c2.07 2.262 4.826 3.507 7.762 3.507 2.928 0 5.228-.939 6.836-2.791l.385-.443v2.576h6.61V10.705h-6.61v2.576zM17.42 10.705l-5.046 15.38-5.046-15.38H0l8.531 23.058h7.684l8.531-23.058H17.42z"/></svg><svg viewBox="0 0 10 13" id="warning--negative" xmlns="http://www.w3.org/2000/svg"><g transform="translate(0 1)" fill="currentColor" fill-rule="evenodd"><rect x="1" y="7" width="1" height="4" rx=".5"/><rect transform="rotate(90 3 10.5)" x="2.5" y="8.5" width="1" height="4" rx=".5"/><path d="M4.771 5H7.5a.5.5 0 01.259.928l-5.346 4.387a.5.5 0 01-.671-.033l-.033-.033a.453.453 0 01.033-.67L6.102 6H3.5a.5.5 0 01-.296-.903L8.304.33a.5.5 0 01.695.012l.011.012A.483.483 0 019 1.049L4.77 5z"/></g></svg></svg>