<?xml version="1.0" encoding="UTF-8"?><svg xmlns="http://www.w3.org/2000/svg" xmlns:xlink="http://www.w3.org/1999/xlink"><style>:root>svg{display:none}:root>svg:target{display:block}</style><svg viewBox="0 0 22 22" id="i-arrow--down" xmlns="http://www.w3.org/2000/svg"><path d="m10.9 14.97 7.778-7.778a1 1 0 0 1 1.414 1.415l-8.485 8.485a1 1 0 0 1-1.415 0L1.707 8.607a1 1 0 1 1 1.414-1.415l7.778 7.779Z" fill="currentColor" fill-rule="evenodd"/></svg><svg viewBox="0 0 48 48" id="i-arrow--left" xmlns="http://www.w3.org/2000/svg"><path d="M28.05 36 16 23.95 28.05 11.9l2.15 2.15-9.9 9.9 9.9 9.9Z" fill="currentColor"/></svg><svg viewBox="0 0 48 48" id="i-arrow--right" xmlns="http://www.w3.org/2000/svg"><path d="m18.75 36-2.15-2.15 9.9-9.9-9.9-9.9 2.15-2.15L30.8 23.95Z" fill="currentColor"/></svg><svg fill="currentColor" viewBox="0 0 20.32 18.418" id="i-arrow-2--left" xmlns="http://www.w3.org/2000/svg"><path d="m11.32 16.289-5.588-5.588H20.32v-3H5.748l5.574-5.578L9.199 0l-9.2 9.2.016.014-.016.016 9.2 9.189Z"/></svg><svg fill="currentColor" viewBox="0 0 20.316 18.414" id="i-arrow-2--right" xmlns="http://www.w3.org/2000/svg"><path d="m9 16.291 5.588-5.588H0v-3h14.572L8.998 2.125 11.121.002l9.2 9.2-.016.014.016.016-9.2 9.189Z"/></svg><svg fill="currentColor" viewBox="0 0 28.012 28" id="i-calendar" xmlns="http://www.w3.org/2000/svg"><path d="M22.6 28H5.408A5.41 5.41 0 0 1 0 22.591V7.559a5.413 5.413 0 0 1 5.408-5.407h1.045V1.094a1.094 1.094 0 1 1 2.187 0v1.058h10.731V1.094a1.094 1.094 0 1 1 2.188 0v1.058H22.6a5.413 5.413 0 0 1 5.408 5.407v15.032A5.41 5.41 0 0 1 22.6 28M2.187 10.792v11.8a3.22 3.22 0 0 0 3.221 3.222H22.6a3.221 3.221 0 0 0 3.221-3.222v-11.8Zm0-2.188h23.638V7.559a3.225 3.225 0 0 0-3.225-3.22h-1.041v2.133a1.094 1.094 0 0 1-2.188 0V4.339H8.64v2.133a1.094 1.094 0 1 1-2.187 0V4.339H5.408a3.225 3.225 0 0 0-3.221 3.22Zm19.354 14.037H19.39a1.094 1.094 0 0 1 0-2.188h2.151a1.094 1.094 0 0 1 0 2.188m-6.466 0h-2.151a1.094 1.094 0 0 1 0-2.188h2.151a1.094 1.094 0 1 1 0 2.188m-6.453 0H6.471a1.094 1.094 0 0 1 0-2.188h2.151a1.094 1.094 0 0 1 0 2.188m12.919-6.453H19.39a1.094 1.094 0 0 1 0-2.188h2.151a1.094 1.094 0 0 1 0 2.188m-6.466 0h-2.151a1.094 1.094 0 0 1 0-2.188h2.151a1.094 1.094 0 1 1 0 2.188m-6.453 0H6.471a1.094 1.094 0 1 1 0-2.188h2.151a1.094 1.094 0 0 1 0 2.188"/></svg><svg viewBox="0 0 22 22" id="i-check" xmlns="http://www.w3.org/2000/svg"><path d="m8.172 14.243 7.778-7.779a1 1 0 0 1 1.414 1.415l-8.485 8.485a1 1 0 0 1-1.415 0l-2.828-2.828A1 1 0 1 1 6.05 12.12l2.122 2.122Z" fill="currentColor" fill-rule="evenodd"/></svg><svg viewBox="0 0 22 22" id="i-close" xmlns="http://www.w3.org/2000/svg"><path d="m12.414 11 5.663 5.663a.993.993 0 0 1-.006 1.408c-.39.39-1.029.385-1.408.006L11 12.414l-5.663 5.663a.993.993 0 0 1-1.408-.006 1.003 1.003 0 0 1-.006-1.408L9.586 11 3.923 5.337A.993.993 0 0 1 3.93 3.93c.39-.39 1.029-.385 1.408-.006L11 9.586l5.663-5.663a.993.993 0 0 1 1.408.006c.39.39.385 1.029.006 1.408L12.414 11Z" fill="currentColor" fill-rule="evenodd"/></svg><svg viewBox="0 0 22 22" id="i-error" xmlns="http://www.w3.org/2000/svg"><path d="M9 5c0-1.105.888-2 2-2 1.105 0 2 .887 2 2v6c0 1.105-.888 2-2 2-1.105 0-2-.887-2-2V5Zm2 14a2 2 0 1 1 0-4 2 2 0 0 1 0 4Z" fill="currentColor" fill-rule="evenodd"/></svg><svg viewBox="0 0 22 22" id="i-info" xmlns="http://www.w3.org/2000/svg"><path d="M11.5 8A1.5 1.5 0 0 1 13 9.5v8a1.5 1.5 0 0 1-3 0v-8A1.5 1.5 0 0 1 11.5 8Zm0-5a1.5 1.5 0 1 1 0 3 1.5 1.5 0 0 1 0-3Z" fill="currentColor" fill-rule="evenodd"/></svg><svg viewBox="0 0 1024 721" xml:space="preserve" id="i-play" xmlns="http://www.w3.org/2000/svg"><path fill="#FFF" d="m407 493 276-143-276-144v287z"/><path opacity=".12" fill="#420000" d="m407 206 242 161.6 34-17.6-276-144z"/><linearGradient id="ka" gradientUnits="userSpaceOnUse" x1="512.5" y1="719.7" x2="512.5" y2="1.2" gradientTransform="matrix(1 0 0 -1 0 721)"><stop offset="0" style="stop-color:#e52d27"/><stop offset="1" style="stop-color:#bf171d"/></linearGradient><path fill="url(#ka)" d="M1013 156.3s-10-70.4-40.6-101.4C933.6 14.2 890 14 870.1 11.6 727.1 1.3 512.7 1.3 512.7 1.3h-.4s-214.4 0-357.4 10.3C135 14 91.4 14.2 52.6 54.9 22 85.9 12 156.3 12 156.3S1.8 238.9 1.8 321.6v77.5C1.8 481.8 12 564.4 12 564.4s10 70.4 40.6 101.4c38.9 40.7 89.9 39.4 112.6 43.7 81.7 7.8 347.3 10.3 347.3 10.3s214.6-.3 357.6-10.7c20-2.4 63.5-2.6 102.3-43.3 30.6-31 40.6-101.4 40.6-101.4s10.2-82.7 10.2-165.3v-77.5c0-82.7-10.2-165.3-10.2-165.3zM407 493V206l276 144-276 143z"/></svg><svg viewBox="0 0 22 22" id="i-plus" xmlns="http://www.w3.org/2000/svg"><path d="M12 10h8.008c.548 0 .992.444.992 1 0 .552-.455 1-.992 1H12v8.008A.993.993 0 0 1 11 21c-.552 0-1-.455-1-.992V12H1.992A.993.993 0 0 1 1 11c0-.552.455-1 .992-1H10V1.992A.993.993 0 0 1 11 1c.552 0 1 .455 1 .992V10Z" fill="currentColor" fill-rule="evenodd"/></svg><svg viewBox="0 0 22 22" id="i-search" xmlns="http://www.w3.org/2000/svg"><path d="m3.243 18.385 4.242-4.243.707.707-4.242 4.243-.707-.707Zm14.495-4.596a6.5 6.5 0 1 1-9.192-9.193 6.5 6.5 0 0 1 9.192 9.193Zm-.707-.708a5.5 5.5 0 1 0-7.778-7.778 5.5 5.5 0 0 0 7.778 7.778Z" fill="currentColor" fill-rule="evenodd"/></svg><svg viewBox="0 0 8 8" id="i-styleguide-heart" xmlns="http://www.w3.org/2000/svg"><path d="M2 1c-.55 0-1.04.23-1.41.59C.23 1.95 0 2.44 0 3c0 .55.23 1.04.59 1.41L4 7.82l3.41-3.41C7.77 4.05 8 3.56 8 3c0-.55-.23-1.04-.59-1.41C7.05 1.23 6.56 1 6 1c-.55 0-1.04.23-1.41.59C4.23 1.95 4 2.44 4 3c0-.55-.23-1.04-.59-1.41C3.05 1.23 2.56 1 2 1z" fill="currentColor"/></svg><svg viewBox="0 0 10 13" id="i-warning" xmlns="http://www.w3.org/2000/svg"><g transform="translate(0 1)" fill="currentColor" fill-rule="evenodd"><rect x="1" y="7" width="1" height="4" rx=".5"/><rect transform="rotate(90 3 10.5)" x="2.5" y="8.5" width="1" height="4" rx=".5"/><path d="M4.771 5H7.5a.5.5 0 0 1 .259.928l-5.346 4.387a.5.5 0 0 1-.671-.033l-.033-.033a.453.453 0 0 1 .033-.67L6.102 6H3.5a.5.5 0 0 1-.296-.903L8.304.33a.5.5 0 0 1 .695.012l.011.012A.483.483 0 0 1 9 1.049L4.77 5Z"/></g></svg></svg>