<?xml version="1.0" encoding="utf-8"?>
<!-- Generator: Adobe Illustrator 21.0.0, SVG Export Plug-In . SVG Version: 6.00 Build 0)  -->
<svg version="1.1" id="Layer_1" xmlns="http://www.w3.org/2000/svg" xmlns:xlink="http://www.w3.org/1999/xlink" x="0px" y="0px"
	 viewBox="0 0 1920 720" style="enable-background:new 0 0 1920 720;" xml:space="preserve">
<g id="logo_black">
	<path id="c" d="M1656,417.6c-7.8,14.8-24.3,23.9-43.6,23.9c-30,0-51.8-22.4-51.8-53.2s21.8-53.2,51.8-53.2
		c19.2,0,35.3,8.9,43.6,23.9l54-31.4c-19.3-33.1-56.2-53.6-96.8-53.6c-65.4,0-114.7,49.1-114.7,114.2s49.3,114.2,114.7,114.2
		c40.6,0,77.5-20.6,96.8-54L1656,417.6z"/>
	<rect id="i_1_" x="1417" y="280.2" width="62" height="216.2"/>
	<path id="i" d="M1448,177.5c-20.4,0-37.6,17.2-37.6,37.6s17.2,37.6,37.6,37.6s37.6-17.2,37.6-37.6S1468.4,177.5,1448,177.5z"/>
	<path id="t" d="M1309.8,481.3c16.2,14.6,44.1,19.5,87.8,15.2v-55.9c-19.9,1.1-32.8,0.3-39.9-6.3c-3.7-3.5-5.5-8.3-5.5-14.8v-80
		h45.4v-59.4h-45.4v-75.9l-62,18.6v57.3H1255v59.3h35.2v80C1290.2,449.6,1296.4,469.2,1309.8,481.3z"/>
	<path id="n" d="M1141.4,336c23,0,41.7,18.7,41.7,41.7v118.6h62V363.5c0-49.4-40-89.5-89.4-89.5c-18.9,0-37.4,6-52.7,17.2l-3.3,2.4
		v-13.4h-62v216.2h62V377.7C1099.8,354.7,1118.4,336,1141.4,336z"/>
	<path id="a-2_1_" d="M1007.2,496.3V280.2h-62v24.1l-3.6-4.1c-15-17.4-36.6-26.2-64.1-26.2s-53.4,11.7-72.8,32.9
		c-19.7,21.5-30.5,50.4-30.5,81.4s10.8,59.9,30.5,81.4c19.4,21.2,45.2,32.9,72.8,32.9s49-8.8,64.1-26.2l3.6-4.1v24.1L1007.2,496.3z
		 M890.8,444c-32.6,0-54.5-22.4-54.5-55.8s21.9-55.8,54.5-55.8s54.5,22.4,54.5,55.8S923.3,444,890.8,444z"/>
	<polygon id="l_1_" points="692.8,196.1 692.8,496.3 754.8,496.3 754.8,177.5 	"/>
	<path id="a-1" d="M662.3,496.3V280.2h-62v24.1l-3.6-4.1c-15.1-17.4-36.6-26.2-64.1-26.2s-53.4,11.7-72.8,32.9
		c-19.6,21.5-30.5,50.4-30.5,81.4s10.8,59.9,30.5,81.4c19.4,21.2,45.2,32.9,72.8,32.9c27.5,0,49-8.8,64.1-26.2l3.6-4.1v24.1
		L662.3,496.3z M545.8,444c-32.6,0-54.5-22.4-54.5-55.8s21.9-55.8,54.5-55.8s54.5,22.4,54.5,55.8S578.4,444,545.8,444z"/>
	<polygon id="v" points="373.3,280.2 326,424.4 278.7,280.2 210,280.2 290,496.3 362,496.3 442,280.2 	"/>
</g>
</svg>
